<?xml version="1.0" standalone="no"?>
<!DOCTYPE svg PUBLIC "-//W3C//DTD SVG 20010904//EN"
 "http://www.w3.org/TR/2001/REC-SVG-20010904/DTD/svg10.dtd">
<svg version="1.0" xmlns="http://www.w3.org/2000/svg"
 width="256.000000pt" height="256.000000pt" viewBox="0 0 256.000000 256.000000"
 preserveAspectRatio="xMidYMid meet">

<g transform="translate(0.000000,256.000000) scale(0.100000,-0.100000)"
fill="#000000" stroke="none">
<path d="M1238 1674 c-36 -19 -35 -29 3 -45 52 -21 89 -58 89 -88 0 -35 -23
-56 -77 -70 -53 -14 -104 -2 -172 40 -27 16 -54 29 -61 29 -7 0 -33 -12 -57
-26 l-45 -26 54 -29 c29 -16 68 -37 87 -45 155 -70 401 -2 401 112 0 44 -30
80 -102 123 -76 45 -81 47 -120 25z"/>
<path d="M1142 1618 c-7 -7 -12 -33 -12 -60 0 -55 15 -68 79 -68 49 0 89 17
96 41 9 26 2 34 -59 68 -57 33 -85 38 -104 19z"/>
<path d="M1465 1594 c30 -44 32 -78 5 -121 -26 -43 -83 -79 -155 -98 -112 -29
-210 -15 -322 46 -109 59 -113 57 -113 -74 1 -65 3 -78 12 -62 22 40 52 65 85
71 83 16 205 -74 264 -194 30 -60 34 -78 39 -177 5 -104 6 -110 27 -113 12 -2
52 14 88 35 l66 38 -43 7 c-82 14 -122 98 -99 208 27 124 107 232 220 295 101
57 99 62 -51 148 l-48 28 25 -37z"/>
<path d="M1562 1441 c-134 -79 -213 -194 -220 -321 -3 -48 0 -76 12 -98 19
-38 68 -56 114 -43 44 13 149 78 156 97 7 19 8 74 1 74 -3 0 -27 -13 -53 -30
-83 -51 -138 -35 -136 39 2 70 40 120 131 171 56 32 67 51 61 113 l-3 35 -63
-37z"/>
<path d="M936 1305 c-13 -14 -26 -39 -30 -56 -8 -43 -7 -152 2 -165 9 -13 54
-44 64 -44 5 0 8 31 8 68 0 76 16 102 62 102 66 0 118 -84 118 -192 0 -40 4
-78 8 -84 4 -6 26 -23 50 -38 l42 -26 0 83 c0 104 -19 168 -73 249 -78 117
-194 164 -251 103z"/>
<path d="M1510 1264 c-34 -29 -56 -90 -46 -128 8 -32 24 -33 86 -1 90 46 98
90 25 133 l-35 21 -30 -25z"/>
<path d="M1010 1171 c-5 -11 -10 -46 -10 -79 0 -59 17 -92 49 -92 24 0 91 41
91 56 0 30 -28 81 -59 107 -38 32 -57 34 -71 8z"/>
</g>
</svg>
